<mxfile host="app.diagrams.net" modified="2023-05-03T14:40:02.810Z" agent="Mozilla/5.0 (Windows NT 10.0; Win64; x64) AppleWebKit/537.36 (KHTML, like Gecko) Chrome/112.0.0.0 Safari/537.36" etag="ZYQvynimu9ukxZTANFBd" version="21.2.6" type="device">
  <diagram name="Page-1" id="13e1069c-82ec-6db2-03f1-153e76fe0fe0">
    <mxGraphModel dx="1304" dy="643" grid="1" gridSize="10" guides="1" tooltips="1" connect="1" arrows="1" fold="1" page="1" pageScale="1" pageWidth="1100" pageHeight="850" background="none" math="0" shadow="0">
      <root>
        <mxCell id="0" />
        <mxCell id="1" parent="0" />
        <mxCell id="7baba1c4bc27f4b0-2" value="페이지" style="shape=umlLifeline;perimeter=lifelinePerimeter;whiteSpace=wrap;html=1;container=1;collapsible=0;recursiveResize=0;outlineConnect=0;rounded=1;shadow=0;comic=0;labelBackgroundColor=none;strokeWidth=1;fontFamily=Verdana;fontSize=12;align=center;" parent="1" vertex="1">
          <mxGeometry x="314" y="109" width="100" height="1491" as="geometry" />
        </mxCell>
        <mxCell id="7baba1c4bc27f4b0-3" value="스토어 / Axios" style="shape=umlLifeline;perimeter=lifelinePerimeter;whiteSpace=wrap;html=1;container=1;collapsible=0;recursiveResize=0;outlineConnect=0;rounded=1;shadow=0;comic=0;labelBackgroundColor=none;strokeWidth=1;fontFamily=Verdana;fontSize=12;align=center;movable=1;resizable=1;rotatable=1;deletable=1;editable=1;locked=0;connectable=1;" parent="1" vertex="1">
          <mxGeometry x="534" y="109" width="100" height="1491" as="geometry" />
        </mxCell>
        <mxCell id="7baba1c4bc27f4b0-4" value="KAKAO_API" style="shape=umlLifeline;perimeter=lifelinePerimeter;whiteSpace=wrap;html=1;container=1;collapsible=0;recursiveResize=0;outlineConnect=0;rounded=1;shadow=0;comic=0;labelBackgroundColor=none;strokeWidth=1;fontFamily=Verdana;fontSize=12;align=center;" parent="1" vertex="1">
          <mxGeometry x="909" y="109" width="100" height="1491" as="geometry" />
        </mxCell>
        <mxCell id="7baba1c4bc27f4b0-8" value="유저" style="shape=umlLifeline;perimeter=lifelinePerimeter;whiteSpace=wrap;html=1;container=1;collapsible=0;recursiveResize=0;outlineConnect=0;rounded=1;shadow=0;comic=0;labelBackgroundColor=none;strokeWidth=1;fontFamily=Verdana;fontSize=12;align=center;" parent="1" vertex="1">
          <mxGeometry x="94" y="109" width="100" height="1491" as="geometry" />
        </mxCell>
        <mxCell id="7baba1c4bc27f4b0-11" value="1. 북마크 목록 페이지 접근" style="html=1;verticalAlign=bottom;endArrow=block;labelBackgroundColor=none;fontFamily=Helvetica;fontSize=12;edgeStyle=elbowEdgeStyle;elbow=vertical;align=left;fontStyle=1" parent="1" edge="1">
          <mxGeometry x="-1" relative="1" as="geometry">
            <mxPoint x="143.5" y="210" as="sourcePoint" />
            <mxPoint x="363.5" y="210" as="targetPoint" />
            <mxPoint as="offset" />
          </mxGeometry>
        </mxCell>
        <mxCell id="d7kwrDIypniRsh-_axAG-28" value="유저" style="rounded=1;whiteSpace=wrap;html=1;fontSize=12;" parent="1" vertex="1">
          <mxGeometry x="94" y="1600" width="100" height="40" as="geometry" />
        </mxCell>
        <mxCell id="d7kwrDIypniRsh-_axAG-29" value="페이지" style="rounded=1;whiteSpace=wrap;html=1;fontSize=12;" parent="1" vertex="1">
          <mxGeometry x="314" y="1600" width="100" height="40" as="geometry" />
        </mxCell>
        <mxCell id="d7kwrDIypniRsh-_axAG-30" value="스토어 / Axios" style="rounded=1;whiteSpace=wrap;html=1;fontSize=12;" parent="1" vertex="1">
          <mxGeometry x="534" y="1600" width="100" height="40" as="geometry" />
        </mxCell>
        <mxCell id="d7kwrDIypniRsh-_axAG-31" value="KAKAO_API" style="rounded=1;whiteSpace=wrap;html=1;fontSize=12;" parent="1" vertex="1">
          <mxGeometry x="909" y="1600" width="100" height="40" as="geometry" />
        </mxCell>
        <mxCell id="d7kwrDIypniRsh-_axAG-33" value="&lt;span style=&quot;font-size: 25px;&quot;&gt;&lt;b&gt;마이페이지 - 북마크 조회, 리뷰 조회 / 수정 / 삭제&lt;/b&gt;&lt;/span&gt;" style="text;html=1;strokeColor=none;fillColor=none;align=center;verticalAlign=middle;whiteSpace=wrap;rounded=0;fontSize=12;" parent="1" vertex="1">
          <mxGeometry x="154" y="40" width="792" height="30" as="geometry" />
        </mxCell>
        <mxCell id="fj5dnLexoJdEt0vvxZNv-23" value="백엔드 API" style="shape=umlLifeline;perimeter=lifelinePerimeter;whiteSpace=wrap;html=1;container=1;collapsible=0;recursiveResize=0;outlineConnect=0;rounded=1;shadow=0;comic=0;labelBackgroundColor=none;strokeWidth=1;fontFamily=Verdana;fontSize=12;align=center;" parent="1" vertex="1">
          <mxGeometry x="764" y="109" width="100" height="1491" as="geometry" />
        </mxCell>
        <mxCell id="fj5dnLexoJdEt0vvxZNv-26" value="백엔드 API" style="rounded=1;whiteSpace=wrap;html=1;fontSize=12;" parent="1" vertex="1">
          <mxGeometry x="764" y="1600" width="100" height="40" as="geometry" />
        </mxCell>
        <mxCell id="fj5dnLexoJdEt0vvxZNv-49" value="북마크 목록 조회" style="shape=umlFrame;whiteSpace=wrap;html=1;pointerEvents=0;width=106;height=20;fillColor=#d5e8d4;strokeColor=#82b366;" parent="1" vertex="1">
          <mxGeometry x="74" y="170" width="930" height="190" as="geometry" />
        </mxCell>
        <mxCell id="N0yfgly27lMoUbKmG3n6-59" value="23. 리뷰 삭제 버튼 클릭" style="html=1;verticalAlign=bottom;endArrow=block;labelBackgroundColor=none;fontFamily=Helvetica;fontSize=12;edgeStyle=elbowEdgeStyle;elbow=vertical;align=left;fontStyle=1" edge="1" parent="1">
          <mxGeometry x="-0.9971" relative="1" as="geometry">
            <mxPoint x="144" y="1342.26" as="sourcePoint" />
            <mxPoint x="364" y="1342.26" as="targetPoint" />
            <mxPoint as="offset" />
          </mxGeometry>
        </mxCell>
        <mxCell id="N0yfgly27lMoUbKmG3n6-60" value="24. 백엔드 API 서버 통신 요청" style="html=1;verticalAlign=bottom;endArrow=block;labelBackgroundColor=none;fontFamily=Helvetica;fontSize=12;edgeStyle=elbowEdgeStyle;elbow=vertical;align=left;fontStyle=1" edge="1" parent="1">
          <mxGeometry x="-1" relative="1" as="geometry">
            <mxPoint x="363" y="1372.26" as="sourcePoint" />
            <mxPoint x="583.5" y="1372.26" as="targetPoint" />
            <mxPoint as="offset" />
          </mxGeometry>
        </mxCell>
        <mxCell id="N0yfgly27lMoUbKmG3n6-61" value="25. [DELETE] /api/v1/reviews/{id}" style="html=1;verticalAlign=bottom;endArrow=block;labelBackgroundColor=none;fontFamily=Helvetica;fontSize=12;edgeStyle=elbowEdgeStyle;elbow=vertical;align=left;fontStyle=1;" edge="1" parent="1">
          <mxGeometry x="-1" relative="1" as="geometry">
            <mxPoint x="582.5" y="1392.26" as="sourcePoint" />
            <mxPoint x="813" y="1392.26" as="targetPoint" />
            <mxPoint as="offset" />
            <Array as="points">
              <mxPoint x="813" y="1392.26" />
            </Array>
          </mxGeometry>
        </mxCell>
        <mxCell id="N0yfgly27lMoUbKmG3n6-63" value="27. 결과값 저장 및 컴포넌트에 전달" style="endArrow=classic;html=1;rounded=0;dashed=1;align=right;fontSize=12;fontStyle=1" edge="1" parent="1">
          <mxGeometry x="-1" y="-10" width="50" height="50" relative="1" as="geometry">
            <mxPoint x="583" y="1466.26" as="sourcePoint" />
            <mxPoint x="363" y="1466.26" as="targetPoint" />
            <Array as="points">
              <mxPoint x="563" y="1466.26" />
            </Array>
            <mxPoint x="1" as="offset" />
          </mxGeometry>
        </mxCell>
        <mxCell id="N0yfgly27lMoUbKmG3n6-64" value="28. 리뷰 리스트 화면 처리" style="endArrow=classic;html=1;rounded=0;dashed=1;align=right;fontSize=12;fontStyle=1" edge="1" parent="1">
          <mxGeometry x="-1" y="-10" width="50" height="50" relative="1" as="geometry">
            <mxPoint x="363" y="1487.26" as="sourcePoint" />
            <mxPoint x="143" y="1487.26" as="targetPoint" />
            <Array as="points">
              <mxPoint x="363" y="1487.26" />
              <mxPoint x="333" y="1487.26" />
            </Array>
            <mxPoint as="offset" />
          </mxGeometry>
        </mxCell>
        <mxCell id="N0yfgly27lMoUbKmG3n6-65" value="26. 리뷰 삭제 후 업데이트" style="endArrow=classic;html=1;rounded=0;dashed=1;align=right;fontSize=12;fontStyle=1" edge="1" parent="1">
          <mxGeometry x="-1" y="-10" width="50" height="50" relative="1" as="geometry">
            <mxPoint x="814" y="1452" as="sourcePoint" />
            <mxPoint x="583" y="1452" as="targetPoint" />
            <Array as="points">
              <mxPoint x="779" y="1452" />
              <mxPoint x="749" y="1452" />
            </Array>
            <mxPoint x="1" as="offset" />
          </mxGeometry>
        </mxCell>
        <mxCell id="N0yfgly27lMoUbKmG3n6-68" value="리뷰 삭제" style="shape=umlFrame;whiteSpace=wrap;html=1;pointerEvents=0;width=90;height=20;fillColor=#f8cecc;strokeColor=#b85450;" vertex="1" parent="1">
          <mxGeometry x="74" y="1292" width="930" height="220" as="geometry" />
        </mxCell>
        <mxCell id="N0yfgly27lMoUbKmG3n6-69" value="2. 백엔드 API 서버 통신 요청" style="html=1;verticalAlign=bottom;endArrow=block;labelBackgroundColor=none;fontFamily=Helvetica;fontSize=12;edgeStyle=elbowEdgeStyle;elbow=vertical;align=left;fontStyle=1" edge="1" parent="1">
          <mxGeometry x="-1" relative="1" as="geometry">
            <mxPoint x="364" y="228.27" as="sourcePoint" />
            <mxPoint x="584.5" y="228.27" as="targetPoint" />
            <mxPoint as="offset" />
          </mxGeometry>
        </mxCell>
        <mxCell id="N0yfgly27lMoUbKmG3n6-70" value="3. [GET] /api/v1/bookmarks" style="html=1;verticalAlign=bottom;endArrow=block;labelBackgroundColor=none;fontFamily=Helvetica;fontSize=12;edgeStyle=elbowEdgeStyle;elbow=vertical;align=left;fontStyle=1;" edge="1" parent="1">
          <mxGeometry x="-1" relative="1" as="geometry">
            <mxPoint x="583.5" y="248.27" as="sourcePoint" />
            <mxPoint x="814" y="248.27" as="targetPoint" />
            <mxPoint as="offset" />
            <Array as="points">
              <mxPoint x="814" y="248.27" />
            </Array>
          </mxGeometry>
        </mxCell>
        <mxCell id="N0yfgly27lMoUbKmG3n6-71" value="5. 결과값 저장 및 컴포넌트에 전달" style="endArrow=classic;html=1;rounded=0;dashed=1;align=right;fontSize=12;fontStyle=1" edge="1" parent="1">
          <mxGeometry x="-1" y="-10" width="50" height="50" relative="1" as="geometry">
            <mxPoint x="583" y="304" as="sourcePoint" />
            <mxPoint x="363" y="304" as="targetPoint" />
            <Array as="points">
              <mxPoint x="563" y="304" />
            </Array>
            <mxPoint x="1" as="offset" />
          </mxGeometry>
        </mxCell>
        <mxCell id="N0yfgly27lMoUbKmG3n6-72" value="6. 북마크 장소 리스트 화면 처리" style="endArrow=classic;html=1;rounded=0;dashed=1;align=right;fontSize=12;fontStyle=1" edge="1" parent="1">
          <mxGeometry x="-1" y="-10" width="50" height="50" relative="1" as="geometry">
            <mxPoint x="363" y="325" as="sourcePoint" />
            <mxPoint x="143" y="325" as="targetPoint" />
            <Array as="points">
              <mxPoint x="363" y="325" />
              <mxPoint x="333" y="325" />
            </Array>
            <mxPoint as="offset" />
          </mxGeometry>
        </mxCell>
        <mxCell id="N0yfgly27lMoUbKmG3n6-73" value="4. 사용자 북마크 장소 리스트 결과 전달" style="endArrow=classic;html=1;rounded=0;dashed=1;align=right;fontSize=12;fontStyle=1" edge="1" parent="1">
          <mxGeometry x="-1" y="-10" width="50" height="50" relative="1" as="geometry">
            <mxPoint x="814" y="280" as="sourcePoint" />
            <mxPoint x="583" y="280" as="targetPoint" />
            <Array as="points">
              <mxPoint x="779" y="280" />
              <mxPoint x="749" y="280" />
            </Array>
            <mxPoint x="1" as="offset" />
          </mxGeometry>
        </mxCell>
        <mxCell id="N0yfgly27lMoUbKmG3n6-74" value="7. 북마크한 장소 클릭" style="html=1;verticalAlign=bottom;endArrow=block;labelBackgroundColor=none;fontFamily=Helvetica;fontSize=12;edgeStyle=elbowEdgeStyle;elbow=vertical;align=left;fontStyle=1" edge="1" parent="1">
          <mxGeometry x="-1" relative="1" as="geometry">
            <mxPoint x="144.5" y="426.27" as="sourcePoint" />
            <mxPoint x="364.5" y="426.27" as="targetPoint" />
            <mxPoint as="offset" />
          </mxGeometry>
        </mxCell>
        <mxCell id="N0yfgly27lMoUbKmG3n6-75" value="8. 장소 단건 조회 컴포넌트 노출" style="endArrow=classic;html=1;rounded=0;dashed=1;align=right;fontSize=12;fontStyle=1" edge="1" parent="1">
          <mxGeometry x="-1" y="-10" width="50" height="50" relative="1" as="geometry">
            <mxPoint x="364" y="470.27" as="sourcePoint" />
            <mxPoint x="144" y="470.27" as="targetPoint" />
            <Array as="points">
              <mxPoint x="364" y="470.27" />
              <mxPoint x="334" y="470.27" />
            </Array>
            <mxPoint as="offset" />
          </mxGeometry>
        </mxCell>
        <mxCell id="N0yfgly27lMoUbKmG3n6-76" value="북마크 장소 단건 조회" style="shape=umlFrame;whiteSpace=wrap;html=1;pointerEvents=0;width=136;height=19;fillColor=#d5e8d4;strokeColor=#82b366;" vertex="1" parent="1">
          <mxGeometry x="74" y="371" width="930" height="139" as="geometry" />
        </mxCell>
        <mxCell id="N0yfgly27lMoUbKmG3n6-77" value="1. 리뷰 목록 페이지 접근" style="html=1;verticalAlign=bottom;endArrow=block;labelBackgroundColor=none;fontFamily=Helvetica;fontSize=12;edgeStyle=elbowEdgeStyle;elbow=vertical;align=left;fontStyle=1" edge="1" parent="1">
          <mxGeometry x="-1" relative="1" as="geometry">
            <mxPoint x="143.5" y="590" as="sourcePoint" />
            <mxPoint x="363.5" y="590" as="targetPoint" />
            <mxPoint as="offset" />
          </mxGeometry>
        </mxCell>
        <mxCell id="N0yfgly27lMoUbKmG3n6-78" value="리뷰 목록 조회" style="shape=umlFrame;whiteSpace=wrap;html=1;pointerEvents=0;width=90;height=20;fillColor=#d5e8d4;strokeColor=#82b366;" vertex="1" parent="1">
          <mxGeometry x="74" y="550" width="930" height="180" as="geometry" />
        </mxCell>
        <mxCell id="N0yfgly27lMoUbKmG3n6-79" value="2. 백엔드 API 서버 통신 요청" style="html=1;verticalAlign=bottom;endArrow=block;labelBackgroundColor=none;fontFamily=Helvetica;fontSize=12;edgeStyle=elbowEdgeStyle;elbow=vertical;align=left;fontStyle=1" edge="1" parent="1">
          <mxGeometry x="-1" relative="1" as="geometry">
            <mxPoint x="364" y="608.27" as="sourcePoint" />
            <mxPoint x="584.5" y="608.27" as="targetPoint" />
            <mxPoint as="offset" />
          </mxGeometry>
        </mxCell>
        <mxCell id="N0yfgly27lMoUbKmG3n6-80" value="3. [GET] /api/v1/reviews" style="html=1;verticalAlign=bottom;endArrow=block;labelBackgroundColor=none;fontFamily=Helvetica;fontSize=12;edgeStyle=elbowEdgeStyle;elbow=vertical;align=left;fontStyle=1;" edge="1" parent="1">
          <mxGeometry x="-1" relative="1" as="geometry">
            <mxPoint x="583.5" y="628.27" as="sourcePoint" />
            <mxPoint x="814" y="628.27" as="targetPoint" />
            <mxPoint as="offset" />
            <Array as="points">
              <mxPoint x="814" y="628.27" />
            </Array>
          </mxGeometry>
        </mxCell>
        <mxCell id="N0yfgly27lMoUbKmG3n6-81" value="5. 결과값 저장 및 컴포넌트에 전달" style="endArrow=classic;html=1;rounded=0;dashed=1;align=right;fontSize=12;fontStyle=1" edge="1" parent="1">
          <mxGeometry x="-1" y="-10" width="50" height="50" relative="1" as="geometry">
            <mxPoint x="583" y="684" as="sourcePoint" />
            <mxPoint x="363" y="684" as="targetPoint" />
            <Array as="points">
              <mxPoint x="563" y="684" />
            </Array>
            <mxPoint x="1" as="offset" />
          </mxGeometry>
        </mxCell>
        <mxCell id="N0yfgly27lMoUbKmG3n6-82" value="6. 사용자 작성 리뷰 리스트 화면 처리" style="endArrow=classic;html=1;rounded=0;dashed=1;align=right;fontSize=12;fontStyle=1" edge="1" parent="1">
          <mxGeometry x="-1" y="-10" width="50" height="50" relative="1" as="geometry">
            <mxPoint x="363" y="705" as="sourcePoint" />
            <mxPoint x="143" y="705" as="targetPoint" />
            <Array as="points">
              <mxPoint x="363" y="705" />
              <mxPoint x="333" y="705" />
            </Array>
            <mxPoint as="offset" />
          </mxGeometry>
        </mxCell>
        <mxCell id="N0yfgly27lMoUbKmG3n6-83" value="4. 사용자 작성 리뷰 리스트 결과 전달" style="endArrow=classic;html=1;rounded=0;dashed=1;align=right;fontSize=12;fontStyle=1" edge="1" parent="1">
          <mxGeometry x="-1" y="-10" width="50" height="50" relative="1" as="geometry">
            <mxPoint x="814" y="660" as="sourcePoint" />
            <mxPoint x="583" y="660" as="targetPoint" />
            <Array as="points">
              <mxPoint x="779" y="660" />
              <mxPoint x="749" y="660" />
            </Array>
            <mxPoint x="1" as="offset" />
          </mxGeometry>
        </mxCell>
        <mxCell id="N0yfgly27lMoUbKmG3n6-84" value="7. 리스트 내 리뷰 클릭" style="html=1;verticalAlign=bottom;endArrow=block;labelBackgroundColor=none;fontFamily=Helvetica;fontSize=12;edgeStyle=elbowEdgeStyle;elbow=vertical;align=left;fontStyle=1" edge="1" parent="1">
          <mxGeometry x="-0.9975" relative="1" as="geometry">
            <mxPoint x="143.5" y="790" as="sourcePoint" />
            <mxPoint x="363.5" y="790" as="targetPoint" />
            <mxPoint as="offset" />
          </mxGeometry>
        </mxCell>
        <mxCell id="N0yfgly27lMoUbKmG3n6-85" value="리뷰 단건 조회" style="shape=umlFrame;whiteSpace=wrap;html=1;pointerEvents=0;width=90;height=20;fillColor=#d5e8d4;strokeColor=#82b366;" vertex="1" parent="1">
          <mxGeometry x="74" y="750" width="930" height="180" as="geometry" />
        </mxCell>
        <mxCell id="N0yfgly27lMoUbKmG3n6-86" value="8. 백엔드 API 서버 통신 요청" style="html=1;verticalAlign=bottom;endArrow=block;labelBackgroundColor=none;fontFamily=Helvetica;fontSize=12;edgeStyle=elbowEdgeStyle;elbow=vertical;align=left;fontStyle=1" edge="1" parent="1">
          <mxGeometry x="-1" relative="1" as="geometry">
            <mxPoint x="364" y="808.27" as="sourcePoint" />
            <mxPoint x="584.5" y="808.27" as="targetPoint" />
            <mxPoint as="offset" />
          </mxGeometry>
        </mxCell>
        <mxCell id="N0yfgly27lMoUbKmG3n6-87" value="9. [GET] /api/v1/reviews/{id}" style="html=1;verticalAlign=bottom;endArrow=block;labelBackgroundColor=none;fontFamily=Helvetica;fontSize=12;edgeStyle=elbowEdgeStyle;elbow=vertical;align=left;fontStyle=1;" edge="1" parent="1">
          <mxGeometry x="-1" relative="1" as="geometry">
            <mxPoint x="583.5" y="828.27" as="sourcePoint" />
            <mxPoint x="814" y="828.27" as="targetPoint" />
            <mxPoint as="offset" />
            <Array as="points">
              <mxPoint x="814" y="828.27" />
            </Array>
          </mxGeometry>
        </mxCell>
        <mxCell id="N0yfgly27lMoUbKmG3n6-88" value="11. 결과값 저장 및 컴포넌트에 전달" style="endArrow=classic;html=1;rounded=0;dashed=1;align=right;fontSize=12;fontStyle=1" edge="1" parent="1">
          <mxGeometry x="-1" y="-10" width="50" height="50" relative="1" as="geometry">
            <mxPoint x="583" y="884" as="sourcePoint" />
            <mxPoint x="363" y="884" as="targetPoint" />
            <Array as="points">
              <mxPoint x="563" y="884" />
            </Array>
            <mxPoint x="1" as="offset" />
          </mxGeometry>
        </mxCell>
        <mxCell id="N0yfgly27lMoUbKmG3n6-89" value="12. 리뷰 화면 처리" style="endArrow=classic;html=1;rounded=0;dashed=1;align=right;fontSize=12;fontStyle=1" edge="1" parent="1">
          <mxGeometry x="-1" y="-10" width="50" height="50" relative="1" as="geometry">
            <mxPoint x="362" y="905" as="sourcePoint" />
            <mxPoint x="142" y="905" as="targetPoint" />
            <Array as="points">
              <mxPoint x="362" y="905" />
              <mxPoint x="332" y="905" />
            </Array>
            <mxPoint as="offset" />
          </mxGeometry>
        </mxCell>
        <mxCell id="N0yfgly27lMoUbKmG3n6-90" value="10. 리뷰 데이터 전달" style="endArrow=classic;html=1;rounded=0;dashed=1;align=right;fontSize=12;fontStyle=1" edge="1" parent="1">
          <mxGeometry x="-1" y="-10" width="50" height="50" relative="1" as="geometry">
            <mxPoint x="814" y="860" as="sourcePoint" />
            <mxPoint x="583" y="860" as="targetPoint" />
            <Array as="points">
              <mxPoint x="779" y="860" />
              <mxPoint x="749" y="860" />
            </Array>
            <mxPoint x="1" as="offset" />
          </mxGeometry>
        </mxCell>
        <mxCell id="N0yfgly27lMoUbKmG3n6-91" value="13. 리뷰 수정하기 버튼 클릭" style="html=1;verticalAlign=bottom;endArrow=block;labelBackgroundColor=none;fontFamily=Helvetica;fontSize=12;edgeStyle=elbowEdgeStyle;elbow=vertical;align=left;fontStyle=1" edge="1" parent="1">
          <mxGeometry x="-0.9975" relative="1" as="geometry">
            <mxPoint x="144.25" y="997.27" as="sourcePoint" />
            <mxPoint x="364.25" y="997.27" as="targetPoint" />
            <mxPoint as="offset" />
          </mxGeometry>
        </mxCell>
        <mxCell id="N0yfgly27lMoUbKmG3n6-92" value="14. 수정 대상 리뷰 데이터 전달 요청" style="html=1;verticalAlign=bottom;endArrow=block;labelBackgroundColor=none;fontFamily=Helvetica;fontSize=12;edgeStyle=elbowEdgeStyle;elbow=vertical;align=left;fontStyle=1" edge="1" parent="1">
          <mxGeometry x="-1" relative="1" as="geometry">
            <mxPoint x="364.75" y="1015.54" as="sourcePoint" />
            <mxPoint x="585.25" y="1015.54" as="targetPoint" />
            <mxPoint as="offset" />
          </mxGeometry>
        </mxCell>
        <mxCell id="N0yfgly27lMoUbKmG3n6-93" value="15. 데이터를 컴포넌트에 전달" style="endArrow=classic;html=1;rounded=0;dashed=1;align=right;fontSize=12;fontStyle=1" edge="1" parent="1">
          <mxGeometry x="-1" y="-10" width="50" height="50" relative="1" as="geometry">
            <mxPoint x="583.75" y="1055.27" as="sourcePoint" />
            <mxPoint x="363.75" y="1055.27" as="targetPoint" />
            <Array as="points">
              <mxPoint x="563.75" y="1055.27" />
            </Array>
            <mxPoint x="1" as="offset" />
          </mxGeometry>
        </mxCell>
        <mxCell id="N0yfgly27lMoUbKmG3n6-94" value="16. 리뷰 수정 폼 노출" style="endArrow=classic;html=1;rounded=0;dashed=1;align=right;fontSize=12;fontStyle=1" edge="1" parent="1">
          <mxGeometry x="-1" y="-10" width="50" height="50" relative="1" as="geometry">
            <mxPoint x="362.75" y="1076.27" as="sourcePoint" />
            <mxPoint x="142.75" y="1076.27" as="targetPoint" />
            <Array as="points">
              <mxPoint x="362.75" y="1076.27" />
              <mxPoint x="332.75" y="1076.27" />
            </Array>
            <mxPoint as="offset" />
          </mxGeometry>
        </mxCell>
        <mxCell id="N0yfgly27lMoUbKmG3n6-95" value="17. 리스트 수정 폼 내 수정 버튼 클릭" style="html=1;verticalAlign=bottom;endArrow=block;labelBackgroundColor=none;fontFamily=Helvetica;fontSize=12;edgeStyle=elbowEdgeStyle;elbow=vertical;align=left;fontStyle=1" edge="1" parent="1">
          <mxGeometry x="-0.9975" relative="1" as="geometry">
            <mxPoint x="143.5" y="1117.27" as="sourcePoint" />
            <mxPoint x="363.5" y="1117.27" as="targetPoint" />
            <mxPoint as="offset" />
          </mxGeometry>
        </mxCell>
        <mxCell id="N0yfgly27lMoUbKmG3n6-96" value="18. 폼 검증, 백엔드 API 서버 통신 요청" style="html=1;verticalAlign=bottom;endArrow=block;labelBackgroundColor=none;fontFamily=Helvetica;fontSize=12;edgeStyle=elbowEdgeStyle;elbow=vertical;align=left;fontStyle=1" edge="1" parent="1">
          <mxGeometry x="-1" relative="1" as="geometry">
            <mxPoint x="364" y="1135.54" as="sourcePoint" />
            <mxPoint x="584.5" y="1135.54" as="targetPoint" />
            <mxPoint as="offset" />
          </mxGeometry>
        </mxCell>
        <mxCell id="N0yfgly27lMoUbKmG3n6-97" value="19. [PUT] /api/v1/reviews/{id}" style="html=1;verticalAlign=bottom;endArrow=block;labelBackgroundColor=none;fontFamily=Helvetica;fontSize=12;edgeStyle=elbowEdgeStyle;elbow=vertical;align=left;fontStyle=1;" edge="1" parent="1">
          <mxGeometry x="-1" relative="1" as="geometry">
            <mxPoint x="583.5" y="1155.54" as="sourcePoint" />
            <mxPoint x="814" y="1155.54" as="targetPoint" />
            <mxPoint as="offset" />
            <Array as="points">
              <mxPoint x="814" y="1155.54" />
            </Array>
          </mxGeometry>
        </mxCell>
        <mxCell id="N0yfgly27lMoUbKmG3n6-98" value="21. 결과값 저장 및 컴포넌트에 전달" style="endArrow=classic;html=1;rounded=0;dashed=1;align=right;fontSize=12;fontStyle=1" edge="1" parent="1">
          <mxGeometry x="-1" y="-10" width="50" height="50" relative="1" as="geometry">
            <mxPoint x="583" y="1211.27" as="sourcePoint" />
            <mxPoint x="363" y="1211.27" as="targetPoint" />
            <Array as="points">
              <mxPoint x="563" y="1211.27" />
            </Array>
            <mxPoint x="1" as="offset" />
          </mxGeometry>
        </mxCell>
        <mxCell id="N0yfgly27lMoUbKmG3n6-99" value="22. 리뷰 화면 업데이트 처리" style="endArrow=classic;html=1;rounded=0;dashed=1;align=right;fontSize=12;fontStyle=1" edge="1" parent="1">
          <mxGeometry x="-1" y="-10" width="50" height="50" relative="1" as="geometry">
            <mxPoint x="362" y="1232.27" as="sourcePoint" />
            <mxPoint x="142" y="1232.27" as="targetPoint" />
            <Array as="points">
              <mxPoint x="362" y="1232.27" />
              <mxPoint x="332" y="1232.27" />
            </Array>
            <mxPoint as="offset" />
          </mxGeometry>
        </mxCell>
        <mxCell id="N0yfgly27lMoUbKmG3n6-100" value="20. 리뷰 데이터 업데이트" style="endArrow=classic;html=1;rounded=0;dashed=1;align=right;fontSize=12;fontStyle=1" edge="1" parent="1">
          <mxGeometry x="-1" y="-10" width="50" height="50" relative="1" as="geometry">
            <mxPoint x="814" y="1187.27" as="sourcePoint" />
            <mxPoint x="583" y="1187.27" as="targetPoint" />
            <Array as="points">
              <mxPoint x="779" y="1187.27" />
              <mxPoint x="749" y="1187.27" />
            </Array>
            <mxPoint x="1" as="offset" />
          </mxGeometry>
        </mxCell>
        <mxCell id="N0yfgly27lMoUbKmG3n6-101" value="리뷰 수정" style="shape=umlFrame;whiteSpace=wrap;html=1;pointerEvents=0;width=90;height=20;fillColor=#fff2cc;strokeColor=#d6b656;" vertex="1" parent="1">
          <mxGeometry x="73" y="954" width="930" height="313" as="geometry" />
        </mxCell>
      </root>
    </mxGraphModel>
  </diagram>
</mxfile>
